Run_50002
nRows=4
nColumns=164

# SIMM Motion File Header:
name Run_50002
datacolumns 164
datarows 4
otherdata 1
range 0.03000000 0.06000000
endheader
time	pelvis_tilt	pelvis_list	pelvis_rotation	pelvis_tx	pelvis_ty	pelvis_tz	hip_flexion_r	hip_adduction_r	hip_rotation_r	knee_angle_r	ankle_angle_r	hip_flexion_l	hip_adduction_l	hip_rotation_l	knee_angle_l	ankle_angle_l	lumbar_extension	lumbar_bending	lumbar_rotation	arm_flex_r	arm_add_r	arm_rot_r	elbow_flex_r	pro_sup_r	arm_flex_l	arm_add_l	arm_rot_l	elbow_flex_l	pro_sup_l	subtalar_angle_r	mtp_angle_r	subtalar_angle_l	mtp_angle_l	wrist_flex_r	wrist_dev_r	wrist_flex_l	wrist_dev_l	LASI_tx	LASI_ty	LASI_tz	RASI_tx	RASI_ty	RASI_tz	LPSI_tx	LPSI_ty	LPSI_tz	RPSI_tx	RPSI_ty	RPSI_tz	RTH1_tx	RTH1_ty	RTH1_tz	RTH2_tx	RTH2_ty	RTH2_tz	RTH3_tx	RTH3_ty	RTH3_tz	LTH1_tx	LTH1_ty	LTH1_tz	LTH2_tx	LTH2_ty	LTH2_tz	LTH3_tx	LTH3_ty	LTH3_tz	RTB1_tx	RTB1_ty	RTB1_tz	RTB2_tx	RTB2_ty	RTB2_tz	RTB3_tx	RTB3_ty	RTB3_tz	LTB1_tx	LTB1_ty	LTB1_tz	LTB2_tx	LTB2_ty	LTB2_tz	LTB3_tx	LTB3_ty	LTB3_tz	RCAL_tx	RCAL_ty	RCAL_tz	RTOE_tx	RTOE_ty	RTOE_tz	RMT5_tx	RMT5_ty	RMT5_tz	LCAL_tx	LCAL_ty	LCAL_tz	LTOE_tx	LTOE_ty	LTOE_tz	LMT5_tx	LMT5_ty	LMT5_tz	LACR_tx	LACR_ty	LACR_tz	RACR_tx	RACR_ty	RACR_tz	CLAV_tx	CLAV_ty	CLAV_tz	C7_tx	C7_ty	C7_tz	RUA1_tx	RUA1_ty	RUA1_tz	RUA2_tx	RUA2_ty	RUA2_tz	RUA3_tx	RUA3_ty	RUA3_tz	RLEL_tx	RLEL_ty	RLEL_tz	RMEL_tx	RMEL_ty	RMEL_tz	LUA1_tx	LUA1_ty	LUA1_tz	LUA2_tx	LUA2_ty	LUA2_tz	LUA3_tx	LUA3_ty	LUA3_tz	LLEL_tx	LLEL_ty	LLEL_tz	LMEL_tx	LMEL_ty	LMEL_tz	RFAsuperior_tx	RFAsuperior_ty	RFAsuperior_tz	RFAradius_tx	RFAradius_ty	RFAradius_tz	RFAulna_tx	RFAulna_ty	RFAulna_tz	LFAsuperior_tx	LFAsuperior_ty	LFAsuperior_tz	LFAradius_tx	LFAradius_ty	LFAradius_tz	LFAulna_tx	LFAulna_ty	LFAulna_tz
      0.03000000	     -2.35623417	      0.24397222	     -1.44294847	      0.73052242	      0.98591365	     -0.29054914	     45.88052656	      3.86295089	      0.42421774	    -68.89341614	      1.40454883	    -23.46815149	      4.59059450	      7.55653448	    -13.97907916	    -12.01472103	    -10.50677182	     -1.58551380	    -12.36499244	    -38.97033531	    -18.18990676	    -12.32615414	     89.11662665	     68.01922970	      1.36080353	    -22.32181158	     -5.01170504	    108.26603102	     96.06707550	      0.00000000	      0.00000000	      0.00000000	      0.00000000	      0.00000000	      0.00000000	      0.00000000	      0.00000000	      0.74442979	      1.00043541	     -0.42494349	      0.73247813	      1.00990648	     -0.16355979	      0.56994084	      1.03912106	     -0.34831039	      0.56513288	      1.03500641	     -0.24436457	      0.70423420	      0.83010227	     -0.12076859	      0.84228152	      0.79023010	     -0.13070388	      0.85477450	      0.66558102	     -0.16617178	      0.60817072	      0.82703943	     -0.47174982	      0.61436738	      0.68962693	     -0.44459516	      0.51052880	      0.60656236	     -0.42984982	      0.94353723	      0.46859540	     -0.22802096	      0.89173017	      0.42703455	     -0.16888765	      0.86102656	      0.31797760	     -0.22738209	      0.40659811	      0.38455721	     -0.35956099	      0.31449291	      0.35339775	     -0.42069345	      0.29895816	      0.27200702	     -0.35370114	      0.70706257	      0.23430583	     -0.24975604	      0.90739181	      0.12760792	     -0.24476188	      0.84836413	      0.13259320	     -0.15917716	      0.12449255	      0.24660732	     -0.34781299	      0.26367082	      0.07122249	     -0.30936194	      0.21167002	      0.07629991	     -0.39786198	      0.76361093	      1.46993131	     -0.45454518	      0.69811396	      1.49739723	     -0.12965560	      0.77502304	      1.42168100	     -0.24832966	      0.66625291	      1.50630655	     -0.30548058	      0.60843151	      1.45143522	     -0.06513407	      0.53397094	      1.40661983	     -0.11709426	      0.52262517	      1.35728920	     -0.05613513	      0.44149616	      1.28049480	     -0.04348326	      0.44766184	      1.26957285	     -0.12620433	      0.74400624	      1.37974169	     -0.53833136	      0.68979759	      1.29488017	     -0.52712761	      0.72189317	      1.23543807	     -0.57644646	      0.74544211	      1.15332056	     -0.60126227	      0.70715035	      1.13423498	     -0.53327497	      0.50657107	      1.19921057	     -0.01072928	      0.61607911	      1.08516093	     -0.00825029	      0.55388420	      1.04842010	     -0.01541521	      0.84754719	      1.16544344	     -0.55856992	      0.96143002	      1.18334918	     -0.44390580	      0.97704432	      1.12170068	     -0.47683699
      0.04000000	     -2.81489587	     -0.56775646	     -1.61758317	      0.73330056	      0.99034011	     -0.28932402	     45.53377626	      4.68949887	      0.17994837	    -60.32914622	      2.80695715	    -25.27566692	      3.56813683	      6.12918743	    -13.38055433	    -19.37490943	     -9.63677197	     -0.67055648	    -12.91439803	    -40.37059903	    -17.64084534	    -12.66431853	     89.61428896	     67.92543131	      1.04184424	    -21.99105589	     -3.87573430	    110.23298678	     96.58768112	      0.00000000	      0.00000000	      0.00000000	      0.00000000	      0.00000000	      0.00000000	      0.00000000	      0.00000000	      0.74760914	      1.00250210	     -0.42273598	      0.73533513	      1.01553417	     -0.16320751	      0.57265202	      1.04417391	     -0.34739393	      0.56967556	      1.04054502	     -0.24438356	      0.70594683	      0.83874550	     -0.12267321	      0.84216275	      0.79532503	     -0.13229470	      0.85283234	      0.67133895	     -0.16695531	      0.60528263	      0.83246683	     -0.46935188	      0.60468539	      0.69624089	     -0.44498542	      0.49807717	      0.61777291	     -0.42737106	      0.95642268	      0.47057945	     -0.22410890	      0.91325463	      0.42227582	     -0.16735027	      0.89453192	      0.31060410	     -0.22545578	      0.38898372	      0.39979435	     -0.36050024	      0.29517964	      0.36938748	     -0.42107403	      0.28039716	      0.28727396	     -0.35714577	      0.75597107	      0.20503123	     -0.25134658	      0.96631273	      0.13457442	     -0.24591257	      0.91003323	      0.12496679	     -0.16131776	      0.11371904	      0.27558030	     -0.35219243	      0.22220649	      0.08021780	     -0.31065563	      0.17186731	      0.09287292	     -0.39910451	      0.76603348	      1.47438841	     -0.45273350	      0.69629356	      1.50084597	     -0.12945047	      0.77475003	      1.42583549	     -0.24689653	      0.66595330	      1.50986719	     -0.30565033	      0.60509912	      1.45696252	     -0.06720542	      0.53150856	      1.41386235	     -0.12101054	      0.51756146	      1.36452928	     -0.06119610	      0.43452554	      1.28876723	     -0.05118765	      0.44258022	      1.27867344	     -0.13353256	      0.74955065	      1.38487451	     -0.53666561	      0.69491733	      1.30045966	     -0.52724642	      0.72741936	      1.24054665	     -0.57514293	      0.75163162	      1.15791304	     -0.59803088	      0.71145931	      1.13906500	     -0.53226139	      0.49800955	      1.20663462	     -0.01695865	      0.60808793	      1.09237038	     -0.01223370	      0.54601271	      1.05566264	     -0.02123491	      0.85162451	      1.17326010	     -0.55160968	      0.95940170	      1.19644777	     -0.43247086	      0.97858147	      1.13446481	     -0.46371168
      0.05000000	     -3.12025832	     -1.24333915	     -1.59321157	      0.73594835	      0.99421981	     -0.28871330	     44.33805807	      5.27179619	      0.22578417	    -50.87385158	      3.82745149	    -26.53888542	      2.73984754	      4.97082441	    -14.18069000	    -25.75693035	     -8.97169953	      0.13777571	    -13.50638386	    -41.58525833	    -17.06133752	    -13.10463523	     90.08935626	     67.88665847	      0.89737248	    -21.73875744	     -2.49344521	    111.72757803	     97.41817922	      0.00000000	      0.00000000	      0.00000000	      0.00000000	      0.00000000	      0.00000000	      0.00000000	      0.00000000	      0.74988986	      1.00468312	     -0.42098133	      0.73788645	      1.02005128	     -0.16326299	      0.57501536	      1.04889558	     -0.34703652	      0.57316917	      1.04588412	     -0.24454953	      0.70726535	      0.84625680	     -0.12423484	      0.84160610	      0.79924419	     -0.13347860	      0.85072514	      0.67365346	     -0.16604559	      0.60352680	      0.83722174	     -0.46715947	      0.59867513	      0.70198526	     -0.44609697	      0.48972943	      0.62641398	     -0.42577170	      0.96724155	      0.47048394	     -0.22134442	      0.93165130	      0.41566185	     -0.16533149	      0.92630048	      0.30274244	     -0.22306381	      0.37429974	      0.41210978	     -0.36088219	      0.27967157	      0.38364977	     -0.42187462	      0.26248450	      0.30191568	     -0.35978985	      0.80447002	      0.17774399	     -0.25219055	      1.02215262	      0.14388235	     -0.24681276	      0.97008189	      0.12052529	     -0.16315223	      0.10436490	      0.30413297	     -0.35641931	      0.18165965	      0.09319129	     -0.31105184	      0.13294257	      0.11323972	     -0.40022721	      0.76792802	      1.47834888	     -0.45121812	      0.69482266	      1.50383930	     -0.12909835	      0.77460626	      1.42964105	     -0.24564250	      0.66593851	      1.51307295	     -0.30577188	      0.60242281	      1.46161320	     -0.06886437	      0.52987912	      1.41990047	     -0.12456175	      0.51350441	      1.37048968	     -0.06592241	      0.42895812	      1.29566448	     -0.05853798	      0.43905138	      1.28610888	     -0.14001931	      0.75406116	      1.38920630	     -0.53537323	      0.69920057	      1.30485037	     -0.52743068	      0.73261886	      1.24488448	     -0.57423581	      0.75758994	      1.16193375	     -0.59556199	      0.71532761	      1.14325092	     -0.53163173	      0.49099106	      1.21297806	     -0.02266488	      0.60179480	      1.09858885	     -0.01583505	      0.53993790	      1.06171017	     -0.02645513	      0.85524071	      1.17975948	     -0.54530092	      0.95687438	      1.20663331	     -0.42211773	      0.97951814	      1.14496039	     -0.45168052
      0.06000000	     -3.27980661	     -1.48103590	     -1.38767920	      0.73819687	      0.99715331	     -0.28868688	     42.41061888	      5.37573374	      0.86244086	    -40.94561430	      4.63345003	    -26.81129439	      2.42814102	      4.50597341	    -17.32519979	    -30.03632667	     -8.54388799	      0.47571842	    -14.06127291	    -42.41540172	    -16.34801131	    -13.60913253	     90.45192437	     67.97800281	      0.93213419	    -21.67070607	     -0.82955687	    112.61138250	     98.60298491	      0.00000000	      0.00000000	      0.00000000	      0.00000000	      0.00000000	      0.00000000	      0.00000000	      0.00000000	      0.75098439	      1.00708084	     -0.41980312	      0.73985401	      1.02289468	     -0.16370244	      0.57699056	      1.05313549	     -0.34740509	      0.57528929	      1.05066328	     -0.24480480	      0.70797360	      0.85125272	     -0.12488703	      0.84042096	      0.80064252	     -0.13363951	      0.84769891	      0.67104955	     -0.16317732	      0.60349371	      0.84084655	     -0.46535055	      0.59780104	      0.70569005	     -0.44687203	      0.48778381	      0.63092056	     -0.42539179	      0.97493349	      0.46745474	     -0.22026694	      0.94520688	      0.40695759	     -0.16290060	      0.95483030	      0.29504622	     -0.22079316	      0.36405966	      0.42030214	     -0.36060796	      0.26984898	      0.39605855	     -0.42340482	      0.24585281	      0.31624825	     -0.36144877	      0.85099981	      0.15443306	     -0.25163358	      1.07211506	      0.15610012	     -0.24756048	      1.02564942	      0.12124719	     -0.16459822	      0.09579066	      0.33226725	     -0.36041372	      0.14363988	      0.11237621	     -0.31051130	      0.09705890	      0.13871261	     -0.40123712	      0.76919572	      1.48146935	     -0.45012415	      0.69397716	      1.50609057	     -0.12851904	      0.77475285	      1.43278598	     -0.24464216	      0.66641335	      1.51563927	     -0.30574031	      0.60083642	      1.46486522	     -0.06981732	      0.52954032	      1.42395581	     -0.12736736	      0.51108462	      1.37444529	     -0.06995897	      0.42561821	      1.30030678	     -0.06508539	      0.43803883	      1.29090429	     -0.14509321	      0.75706488	      1.39225858	     -0.53469043	      0.70232330	      1.30757460	     -0.52771667	      0.73722949	      1.24800878	     -0.57391195	      0.76305807	      1.16502680	     -0.59414213	      0.71819860	      1.14644557	     -0.53143374	      0.48657832	      1.21752091	     -0.02741024	      0.59821990	      1.10311351	     -0.01875872	      0.53668588	      1.06584147	     -0.03065793	      0.85819593	      1.18412051	     -0.53998235	      0.95381908	      1.21258111	     -0.41317382	      0.97956235	      1.15182579	     -0.44138640
